<?xml version="1.0" encoding="utf-8" standalone="no"?>
<?xml-stylesheet href="../css/svg/svg.css" type="text/css"?>
<!DOCTYPE svg PUBLIC "-//W3C//DTD SVG 1.1//EN" "http://www.w3.org/Graphics/SVG/1.1/DTD/svg11.dtd">
<svg version="1.1" xmlns="http://www.w3.org/2000/svg">
	<svg id="right" viewBox="-3 0 10 22" preserveAspectRatio="xMinYMin meet">
		<g>
			<path d="M12.01,10.235l-0.354-0.354c-0.007-0.007-0.016-0.009-0.023-0.016L7.061,5.293c-0.391-0.391-1.023-0.391-1.414,0
			L5.293,5.646c-0.391,0.391-0.391,1.023,0,1.414l3.885,3.886l-3.885,3.885c-0.391,0.391-0.391,1.024,0,1.415l0.354,0.353
			c0.391,0.391,1.023,0.391,1.414,0l4.572-4.572c0.007-0.007,0.017-0.009,0.023-0.016l0.354-0.354
			c0.196-0.196,0.293-0.454,0.292-0.711C12.303,10.688,12.206,10.432,12.01,10.235z"/>
		</g>
	</svg>
</svg>
